<svg id="Layer_1" xmlns="http://www.w3.org/2000/svg" viewBox="0 0 704.5 917">
    <style>
        .st0{fill:none;stroke:#f26767;stroke-width:3;stroke-miterlimit:10}.st1{fill:#f26767}.st2{enable-background:new}.st3{fill:#fff}.st6{fill:#f66}
    </style>
    <g>
        <g>
            <path class="st0" d="M684.6 226.6c-3 43.8 1.5 23.2-1.8 52.6-.5 4.6-4.7 12.8-11.7 21.7-3.1 4 3.4-3.4-11.5 11.2-6.6 6.5-13.5 13.6-19.7 23.8-3.1 5.2-6.4 10.7-8.3 18.8-1.1 4.7-.7 5.8-1.7 18.3-.1 1.7-1 12.7-2.5 24.2-1.6 12.2-2.4 18.3-3.9 22.2-3.5 9.1-9.3 17.1-16.9 23.2-7.5 5.9-10.2 4.6-19 12.2-4.2 3.7-8 7.7-11.4 12-4.2 5.2-8.1 10.6-11.7 16.3-5.8 8.8-5.9 9.6-9.6 14.6-3 4-6.6 8.9-10.8 12.5-3.2 2.7-9.5 7.3-26.3 10-15.8 2.5-31.8 2.2-47.5-.8"/>
            <g>
                <circle class="st1" cx="589.4" cy="454.7" r="8"/>
                <g>
                    <g class="st2">
                        <path class="st3" d="M585.6 452.8h-1.1v-1.6h3v7.5h-1.9v-5.9zM593.9 455.7h.9v1.5h-.9v1.4h-1.8v-1.4h-3.6V456l2.9-4.8h2.5v4.5zm-1.8 0v-3l-1.8 3h1.8z"/>
                    </g>
                </g>
            </g>
        </g>
        <g>
            <path class="st1" d="M616.5 477.8s-8.8-11.8-19.4-14.9c0 0-1.3-.2 0-.4 10.7-3.2 19.4-14.9 19.4-14.9v8.7l67.2.1V469l-67.2.1v8.7z"/>
            <g class="st2">
                <path class="st3" d="M613.6 458.8h1.7v5.2h2.2v-5.2h1.7v5.2h.8v3h-1.5v-1.5h-4.8v-6.7zM623.8 462.5c.3 0 .8.1 1.1.4.3.3.4.7.4 1.1 0 .4-.1.8-.4 1.1-.3.3-.7.4-1.2.4h-2.6v-3.2H620V461h2.6v1.5h1.2zm-.5 2c.1 0 .3-.1.4-.1.1-.1.1-.2.1-.3 0-.1 0-.2-.1-.3-.1-.1-.4-.1-.4-.1h-.6v.9h.6zM627.6 467.8h-1.5V461h1.5v.5c.3-.3.7-.6 1.3-.6.7 0 1.2.3 1.5.6.4.4.6 1 .6 1.7 0 .8-.3 1.3-.7 1.8-.5.5-1 .6-1.5.6-.3 0-.8-.1-1.3-.6v2.8zm.2-5.2c-.2.2-.3.5-.3.7 0 .3.1.5.3.7.2.2.4.3.7.3.3 0 .5-.1.7-.3.2-.2.3-.4.3-.7 0-.2-.1-.5-.3-.7-.2-.2-.4-.3-.7-.3-.2 0-.5.1-.7.3zM631.9 461h1.5v1.5h1.4V461h1.5v4.5h-1.5v-1.7h-1.4v1.7h-1.5V461zM640.7 461h1.5v4.5h-1.5v-.5c-.4.5-.9.6-1.3.6-.5 0-1-.1-1.5-.7-.4-.5-.6-1-.6-1.6 0-.8.3-1.4.7-1.8.4-.4.9-.6 1.5-.6.7 0 1.1.4 1.3.6v-.5zm-1.6 1.5c-.2.2-.3.5-.3.7 0 .3.1.5.3.7.2.2.4.3.7.3.2 0 .5-.1.7-.3.1-.1.3-.4.3-.7 0-.2-.1-.5-.3-.7-.1-.1-.4-.3-.7-.3-.2.1-.5.1-.7.3zM645.4 465.5l1.1-6.7h1.6l1.3 3.6 1.4-3.6h1.6l1 6.7h-1.6l-.5-3.8-1.5 3.8h-.8l-1.5-3.8-.5 3.8h-1.6zM658.5 464.9c-.6.6-1.2.7-1.9.7-.6 0-1.3-.1-1.9-.7-.5-.5-.7-1-.7-1.6 0-.8.3-1.3.7-1.6.4-.4 1-.7 1.9-.7.9 0 1.5.4 1.9.7.3.3.7.8.7 1.6-.1.6-.3 1.1-.7 1.6zm-2.6-2.4c-.2.2-.3.5-.3.7 0 .3.1.5.3.7.2.2.4.3.7.3.2 0 .5-.1.7-.3.2-.2.3-.4.3-.7 0-.2-.1-.5-.3-.7-.2-.2-.4-.3-.7-.3-.3.1-.5.2-.7.3zM660 461h3v1.3h-1.5v3.2H660V461zM665.2 461v2.3l1.7-2.3h1.3v4.5h-1.5v-2.4l-1.7 2.4h-1.3V461h1.5zM673.6 465.5h-1.5v-3.2H671v1.3c0 .2 0 1-.4 1.5-.4.4-.9.4-1.2.4-.2 0-.4 0-.6-.1v-1.2c.2 0 .5 0 .6-.2.1-.2.2-.5.2-.7V461h4.1v4.5zM678 461h1.5v4.5H678v-.5c-.4.5-.9.6-1.3.6-.5 0-1-.1-1.5-.7-.4-.5-.6-1-.6-1.6 0-.8.3-1.4.7-1.8.4-.4.9-.6 1.5-.6.7 0 1.1.4 1.3.6v-.5zm-1.6 1.5c-.2.2-.3.5-.3.7 0 .3.1.5.3.7.2.2.4.3.7.3.2 0 .5-.1.7-.3.1-.1.3-.4.3-.7 0-.2-.1-.5-.3-.7-.1-.1-.4-.3-.7-.3-.3.1-.5.1-.7.3z"/>
            </g>
            <path class="st1" d="M650.9 453.1h-.9l-.5-.1c-1-.1-2-.1-2.9-.3-4.4-.8-8.4-3.2-11.3-6.7-2.3-2.8-3.8-6.2-4.2-9.8 0-.5-.1-1-.2-1.6v-.9c0-.2.1-.3.1-.5 0-1.6.3-3.2.9-4.8 2.7-7.3 8-11.7 15.9-13 2.9-.4 5.8-.2 8.5.7 9.4 2.8 15.1 12.2 13.2 21.8-.9 4.5-3.4 8.4-7.1 11.1-2.9 2.2-6.3 3.6-9.9 3.9l-1.6.2zm-.4-9.9h13c.5 0 .9 0 1.2-.5s0-.8-.2-1.2c-2.6-4.1-5.2-8.2-7.9-12.3l-5.1-8-.2-.2c-.2-.5-.7-.7-1.2-.5-.2.1-.4.3-.5.5l-9.2 14.4c-1.3 2.1-2.7 4.2-4 6.3-.5.8-.1 1.4.8 1.4l13.3.1z"/>
            <path class="st3" d="M650.5 443.2h-13.2c-.9 0-1.3-.7-.8-1.4 1.3-2.1 2.7-4.2 4-6.3l9.2-14.4c.2-.5.7-.7 1.2-.5.2.1.4.3.5.5l.2.2 5.1 8c2.6 4.1 5.2 8.2 7.9 12.3.2.4.5.7.2 1.2s-.7.5-1.2.5l-13.1-.1zm1.4-13.8c0-.4 0-.7-.1-1.1 0-.6-.5-1.1-1.1-1.1-.6-.1-1.2.4-1.4 1-.1.3-.1.6-.1.9 0 .8.1 1.6.1 2.5.1 1.2.2 2.3.3 3.5.1.7.4 1 .8 1s.8-.3.9-1 .1-1.1.2-1.6c.1-1.4.2-2.8.4-4.1zm-2.8 9.4c.1.7.7 1.3 1.5 1.2.7-.1 1.2-.6 1.2-1.2-.1-.7-.7-1.3-1.5-1.2-.6 0-1.1.5-1.2 1.2z"/>
            <path class="st1" d="M651.9 429.4c-.1 1.3-.2 2.7-.4 4.1 0 .5-.1 1.1-.2 1.6s-.4 1-.9 1-.8-.3-.8-1c-.1-1.2-.2-2.3-.3-3.5-.1-.8-.1-1.6-.1-2.5 0-.3 0-.6.1-.9.1-.6.7-1.1 1.4-1 .6 0 1.1.4 1.1 1 0 .5 0 .8.1 1.2zM649.2 438.8c.1-.7.7-1.3 1.5-1.2.7.1 1.2.6 1.2 1.2-.1.7-.7 1.3-1.5 1.2-.7 0-1.2-.6-1.2-1.2z"/>
        </g>
    </g>
    <g>
        <g>
            <path class="st0" d="M224.3 599.1c1.2 1.5 2.5 2.9 4.1 4.1 4.8 3.7 8.2 3.4 16.6 6.9 7.8 3.2 9.3 5.4 10 6.9 1 2.2 5 3.5 4.8 5"/>
            <circle class="st1" cx="223.4" cy="598.7" r="2.3"/>
            <circle class="st1" cx="260.5" cy="622" r="2.3"/>
            <circle class="st1" cx="241.2" cy="606.6" r="8"/>
            <g class="st2">
                <path class="st3" d="M237.4 604.7h-1.1V603h3v7.5h-1.9v-5.8zM245.7 603l-2.1 2.5c.3-.1.7-.2 1-.2.6 0 1.2.2 1.7.7.5.5.7 1.1.7 1.8s-.2 1.4-.8 1.9c-.7.7-1.7.9-2.4.9-1.3 0-2-.5-2.4-.9-.4-.4-.7-.9-.7-1.7 0-1 .5-2 1.1-2.8l1.7-2.2h2.2zm-1.1 5.8c.2-.2.3-.5.3-.8 0-.2-.1-.5-.3-.8-.3-.3-.6-.3-.9-.3-.3 0-.6.1-.8.3-.2.2-.4.5-.4.8 0 .3.1.6.3.8.3.3.6.4.9.4.5-.1.8-.3.9-.4z"/>
            </g>
        </g>
        <g>
            <path class="st1" d="M270.1 620.3s-8.8-11.8-19.4-14.9c0 0-1.3-.2 0-.4 10.7-3.2 19.4-14.9 19.4-14.9v8.7l78.7.1v12.7l-78.7.1v8.6z"/>
            <g class="st2">
                <path class="st3" d="M277.3 606.2c-.5.1-.9.1-1.4.1-.5 0-1.3 0-1.8-.5-.5-.4-.5-1.1-.5-1.6v-2.1h1.7v1.8c0 .2 0 .5.2.7.2.2.6.2.8.2.3 0 .7 0 1-.1v-2.6h1.7v6.7h-1.7v-2.6zM281.9 604.3v2.3l1.8-2.3h1.4v4.5h-1.6v-2.4l-1.7 2.4h-1.4v-4.5h1.5zM290.8 608.8h-1.6v-3.2h-1.1v1.3c0 .2 0 1-.5 1.5-.4.4-.9.4-1.3.4-.2 0-.4 0-.6-.1v-1.2c.2 0 .5 0 .6-.2.1-.2.2-.5.2-.7v-2.4h4.3v4.6zM293.5 604.3v2.3l1.8-2.3h1.4v4.5h-1.6v-2.4l-1.7 2.4H292v-4.5h1.5zM297.8 604.3h1.6v1.5h1.5v-1.5h1.6v4.5h-1.6v-1.7h-1.5v1.7h-1.6v-4.5zM306.1 608.8v-6.7h2.6c.5 0 1 .1 1.5.5.2.2.4.7.4 1.2 0 .3 0 .5-.2.8-.1.3-.3.4-.5.5.4 0 .7.2.9.4.3.3.4.7.4 1.2 0 .6-.2 1.1-.5 1.3-.4.4-1 .6-1.8.6h-2.8zm1.7-4h.3c.2 0 .5 0 .7-.2.1-.1.2-.3.2-.4 0-.2-.1-.3-.2-.4-.1-.1-.3-.2-.7-.2h-.3v1.2zm0 2.6h.4c.5 0 .9 0 1.1-.3.1-.1.1-.2.1-.4s-.1-.4-.2-.5c-.2-.2-.6-.2-1.1-.2h-.4v1.4zM315.6 604.3h1.6v4.5h-1.6v-.5c-.4.5-.9.6-1.4.6-.5 0-1.1-.1-1.6-.7-.4-.5-.6-1-.6-1.6 0-.8.3-1.4.7-1.8.4-.4 1-.6 1.6-.6.7 0 1.1.4 1.3.6v-.5zm-1.7 1.5c-.2.2-.3.5-.3.7 0 .3.1.5.3.7.2.2.4.3.7.3.3 0 .5-.1.7-.3.1-.1.3-.4.3-.7 0-.2-.1-.5-.3-.7-.1-.1-.4-.3-.7-.3-.2 0-.5.1-.7.3zM322.9 608.8h-1.6v-3.2h-1.1v1.3c0 .2 0 1-.5 1.5-.4.4-.9.4-1.3.4-.2 0-.4 0-.6-.1v-1.2c.2 0 .5 0 .6-.2.1-.2.2-.5.2-.7v-2.4h4.3v4.6zM328.5 608.2c-.6.6-1.3.7-2 .7-.6 0-1.4-.1-2-.7-.5-.5-.7-1-.7-1.6 0-.8.4-1.3.7-1.6.4-.4 1-.7 2-.7s1.6.4 2 .7c.3.3.7.8.7 1.6 0 .6-.2 1.1-.7 1.6zm-2.7-2.4c-.2.2-.3.5-.3.7 0 .3.1.5.3.7.2.2.4.3.7.3.3 0 .5-.1.7-.3.2-.2.3-.4.3-.7 0-.2-.1-.5-.3-.7-.2-.2-.5-.3-.7-.3-.2 0-.5.2-.7.3zM330.1 604.3h3.1v1.3h-1.5v3.2h-1.6v-4.5zM338.1 603.6h-.9v-1.5h2.7v6.7h-1.7v-5.2z"/>
            </g>
            <path class="st1" d="M371.7 624.9h-.9l-.5-.1c-1-.1-2-.2-2.9-.3-4.4-.8-8.5-3.2-11.3-6.7-2.3-2.8-3.8-6.2-4.1-9.8 0-.5-.1-1.1-.2-1.6v-.9c0-.2.1-.3.1-.5 0-1.6.3-3.2.9-4.8 2.7-7.3 8-11.7 15.9-13 2.9-.4 5.8-.2 8.5.7 9.4 2.8 15.1 12.2 13.2 21.8-.9 4.5-3.4 8.4-7.1 11.1-2.9 2.2-6.3 3.6-9.9 3.9l-1.7.2zm-.4-9.9h13c.5 0 .9 0 1.2-.5s0-.8-.2-1.2l-7.9-12.4-5.1-8-.1-.2c-.2-.5-.7-.7-1.2-.5-.2.1-.4.3-.5.5l-9.2 14.4-4 6.3c-.5.8-.1 1.4.8 1.4l13.2.2z"/>
            <path class="st3" d="M371.3 615h-13.2c-.9 0-1.3-.7-.8-1.4l4-6.3 9.2-14.4c.2-.5.7-.7 1.2-.5.2.1.4.3.5.5l.1.2 5.1 8 7.9 12.3c.2.4.5.7.2 1.2s-.7.5-1.2.5l-13-.1zm1.3-13.8c0-.4 0-.7-.1-1.1 0-.6-.5-1.1-1.1-1.1-.6-.1-1.2.4-1.4 1-.1.3-.1.6-.1.9 0 .8.1 1.7.1 2.5.1 1.2.2 2.3.3 3.5.1.7.4 1 .8 1s.8-.3.9-1 .1-1.1.2-1.6c.2-1.4.3-2.7.4-4.1zm-2.7 9.4c0 .7.6 1.4 1.3 1.4s1.4-.6 1.4-1.3c0-.7-.6-1.3-1.3-1.3-.7-.1-1.3.5-1.4 1.2z"/>
            <path class="st1" d="M372.6 601.2c-.1 1.3-.2 2.7-.4 4.1 0 .5-.1 1.1-.2 1.6s-.4 1-.9 1-.8-.3-.8-1c-.1-1.2-.2-2.3-.3-3.5-.1-.8-.1-1.7-.1-2.5 0-.3 0-.6.1-.9.1-.6.7-1.1 1.4-1 .6 0 1.1.4 1.1 1 .1.5.1.8.1 1.2zM369.9 610.6c0-.7.6-1.3 1.3-1.3.7 0 1.3.6 1.3 1.3 0 .7-.6 1.3-1.4 1.3s-1.2-.5-1.2-1.3z"/>
        </g>
    </g>
    <g>
        <g>
            <path class="st0" d="M196.4 354.4c-1.8 8.9-1.6 19.2-.8 23.1 1 4.4 2.5 8.7 4.7 12.7 3.4 6.2 5.6 6.9 8.4 12.8 1.1 2.2.4 1.7 3.6 11.9 8.8 28.4-8.2 54-8.4 55.5-.3 2.4-.1 4.8.7 7.1"/>
            <circle class="st1" cx="195.9" cy="354.3" r="2.3"/>
            <circle class="st1" cx="216.3" cy="432.6" r="8"/>
            <g class="st2">
                <path class="st3" d="M212.6 430.7h-1.1v-1.6h3v7.5h-1.9v-5.9zM221.2 435.8c-.6.6-1.3.8-2.1.8-.7 0-1.5-.3-2.1-.8-.7-.7-1.1-1.7-1.1-3s.4-2.4 1.1-3c.6-.6 1.3-.8 2.1-.8.7 0 1.5.3 2.1.8.7.7 1.1 1.7 1.1 3s-.5 2.4-1.1 3zm-2.7-4.9c-.4.3-.6 1.3-.6 1.9 0 .6.2 1.6.6 1.9.1.1.4.2.6.2.2 0 .4-.1.6-.2.4-.4.6-1.3.6-1.9 0-.7-.3-1.6-.6-2-.1-.1-.4-.2-.6-.2-.2 0-.4.1-.6.3z"/>
            </g>
        </g>
        <g>
            <path class="st1" d="M235.4 487s-10.5-14.2-23.4-18c0 0-1.6-.2 0-.5 12.9-3.8 23.4-18 23.4-18V461l67.6.1v15.3l-67.6.1V487z"/>
            <g class="st2">
                <path class="st3" d="M229.6 465.5h1.7v5.2h1.7v-5.2h1.7v5.2h1.7v-5.2h1.7v6.7h-8.6v-6.7zM241 467.7v2.3l1.8-2.3h1.4v4.5h-1.6v-2.4l-1.7 2.4h-1.4v-4.5h1.5zM249.9 472.1h-1.6V469h-1.1v1.3c0 .2 0 1-.5 1.5-.4.4-.9.4-1.3.4-.2 0-.4 0-.6-.1V471c.2 0 .5 0 .6-.2.1-.2.2-.5.2-.7v-2.4h4.3v4.4zM252.6 467.7v2.3l1.8-2.3h1.4v4.5h-1.6v-2.4l-1.7 2.4H251v-4.5h1.6zM256.9 467.7h3.1v1.3h-1.5v3.2h-1.6v-4.5zM264.2 467.7h1.6v4.5h-1.6v-.5c-.4.5-.9.6-1.4.6-.5 0-1.1-.1-1.6-.7-.4-.5-.6-1-.6-1.6 0-.8.3-1.4.7-1.8.4-.4 1-.6 1.6-.6.7 0 1.1.4 1.3.6v-.5zm-1.7 1.5c-.2.2-.3.5-.3.7 0 .3.1.5.3.7.2.2.4.3.7.3.3 0 .5-.1.7-.3.1-.1.3-.4.3-.7 0-.2-.1-.5-.3-.7-.1-.1-.4-.3-.7-.3-.2 0-.5.1-.7.3zM268.5 474.4h-1.6v-6.8h1.6v.5c.3-.3.7-.6 1.4-.6s1.2.3 1.6.6c.4.4.7 1 .7 1.7s-.3 1.3-.7 1.8c-.5.5-1.1.6-1.5.6-.3 0-.9-.1-1.4-.6v2.8zm.2-5.2c-.2.2-.3.5-.3.7 0 .3.1.5.3.7.2.2.4.3.7.3.3 0 .5-.1.7-.3.2-.2.3-.4.3-.7 0-.2-.1-.5-.3-.7-.2-.2-.4-.3-.7-.3-.2 0-.5.1-.7.3zM273 467.7h1.6v1.5h1.5v-1.5h1.6v4.5h-1.6v-1.7h-1.5v1.7H273v-4.5zM280.4 467.7v2.3l1.8-2.3h1.4v4.5H282v-2.4l-1.7 2.4h-1.4v-4.5h1.5zM284.7 467.7h1.6v1.8l1.3-1.8h2l-1.8 2.1 2 2.4h-2.1l-1.5-2v2h-1.6v-4.5zM297.8 472.1h-5.3l1.7-1.8c.6-.6 1-1.2 1.4-1.7.2-.3.4-.6.4-1 0-.1 0-.4-.2-.6-.1-.1-.3-.2-.5-.2-.3 0-.5.1-.6.3-.2.2-.2.6-.2.8h-1.8c0-.9.4-1.5.7-1.8.5-.5 1.1-.7 1.9-.7 1 0 1.6.4 1.9.7.3.3.6.8.6 1.6s-.4 1.4-1 2l-1.1 1h2.2v1.4z"/>
            </g>
            <path class="st1" d="M325.9 487.2h-.9l-.5-.1c-1-.1-2-.1-2.9-.3-4.4-.8-8.4-3.2-11.3-6.7-2.3-2.8-3.8-6.2-4.1-9.8-.1-.5-.1-1-.2-1.6v-.9c0-.2.1-.3.1-.5 0-1.6.3-3.2.9-4.8 2.7-7.3 7.9-11.7 15.9-13 2.9-.4 5.8-.2 8.6.7 9.4 2.8 15.1 12.2 13.2 21.8-.9 4.5-3.4 8.4-7.1 11.1-2.9 2.2-6.3 3.6-9.9 3.9l-1.8.2zm-.4-9.8h13c.5 0 .9 0 1.2-.5s0-.8-.2-1.2l-7.9-12.3-5.1-8-.1-.2c-.2-.5-.7-.7-1.2-.5-.2.1-.4.3-.5.5l-9.2 14.4c-1.3 2.1-2.7 4.2-4 6.3-.5.8-.1 1.4.8 1.4l13.2.1z"/>
            <path class="st3" d="M325.5 477.4h-13.2c-.9 0-1.3-.7-.8-1.4 1.3-2.1 2.7-4.2 4-6.3l9.2-14.4c.2-.5.7-.7 1.2-.5.2.1.4.3.5.5l.1.2 5.1 8 7.9 12.3c.2.4.5.7.2 1.2s-.7.5-1.2.5l-13-.1zm1.3-13.8c0-.4 0-.7-.1-1.1 0-.6-.5-1.1-1.1-1.1-.6-.1-1.2.4-1.4 1-.1.3-.1.6-.1.9 0 .8.1 1.7.1 2.5.1 1.2.2 2.3.3 3.5.1.7.4 1 .8 1s.8-.3.9-1 .1-1.1.2-1.6c.2-1.4.3-2.8.4-4.1zm-2.7 9.4c0 .7.7 1.3 1.4 1.3s1.2-.6 1.3-1.2c0-.7-.6-1.3-1.3-1.3-.8-.1-1.4.5-1.4 1.2z"/>
            <path class="st1" d="M326.8 463.6c-.1 1.3-.2 2.7-.4 4.1 0 .5-.1 1.1-.2 1.6s-.4 1-.9 1-.8-.3-.8-1c-.1-1.2-.2-2.3-.3-3.5-.1-.8-.1-1.6-.1-2.5 0-.3 0-.6.1-.9.1-.6.7-1.1 1.4-1 .6 0 1.1.4 1.1 1 .1.4.1.8.1 1.2zM324.1 473c0-.7.6-1.3 1.4-1.3.7 0 1.3.6 1.3 1.3-.1.7-.7 1.3-1.5 1.2-.6 0-1.1-.5-1.2-1.2z"/>
        </g>
    </g>
    <g>
        <g>
            <path class="st0" d="M135.8 215.3l68.8 303.8"/>
            <circle class="st1" cx="204.2" cy="518.8" r="2.3"/>
            <circle class="st1" cx="135.8" cy="215.7" r="2.3"/>
        </g>
        <g>
            <path class="st1" d="M126.7 376.2s12.7-17 28.1-21.5c0 0 1.9-.2 0-.6-15.5-4.6-28.1-21.5-28.1-21.5v12.5l-65.8.1v18.4l65.8.1v12.5z"/>
            <g class="st2">
                <path class="st3" d="M82.2 357.7l1.1-6.7H85l1.3 3.6 1.4-3.6h1.7l1 6.7h-1.7l-.5-3.8-1.6 3.8H86l-1.5-3.8-.6 3.8h-1.7zM96 357.1c-.6.6-1.3.7-2 .7-.6 0-1.4-.1-2-.7-.5-.5-.7-1-.7-1.6 0-.8.4-1.3.7-1.6.4-.4 1-.7 2-.7s1.6.4 2 .7c.3.3.7.8.7 1.6 0 .6-.2 1.2-.7 1.6zm-2.7-2.3c-.2.2-.3.5-.3.7 0 .3.1.5.3.7.2.2.4.3.7.3.3 0 .5-.1.7-.3.2-.2.3-.4.3-.7 0-.2-.1-.5-.3-.7-.2-.2-.5-.3-.7-.3-.3 0-.5.1-.7.3zM101 357.6c-.4.2-.8.2-1.1.2-.9 0-1.4-.4-1.8-.7a2.413 2.413 0 0 1 0-3.4c.4-.4 1-.7 1.8-.7.3 0 .6 0 1 .2v1.3c-.2-.1-.5-.3-.8-.3-.4 0-.6.2-.8.3-.2.2-.3.5-.3.8 0 .2.1.5.3.7.1.2.4.3.8.3.2 0 .5 0 .8-.3v1.6zM102.6 354.6h-1.2v-1.3h3.9v1.3h-1.2v3.2h-1.6v-3.2zM109.3 353.3h1.6v4.5h-1.6v-.5c-.4.5-.9.6-1.4.6-.5 0-1.1-.1-1.6-.7-.4-.5-.6-1-.6-1.6 0-.8.3-1.4.7-1.8.4-.4 1-.6 1.6-.6.7 0 1.1.4 1.3.6v-.5zm-1.6 1.5c-.2.2-.3.5-.3.7 0 .3.1.5.3.7.2.2.4.3.7.3.3 0 .5-.1.7-.3.1-.1.3-.4.3-.7 0-.2-.1-.5-.3-.7-.1-.1-.4-.3-.7-.3-.2 0-.5 0-.7.3z"/>
            </g>
            <path class="st1" d="M35.6 373.1h-.9c-.2 0-.3-.1-.5-.1-1-.1-2-.1-2.9-.4-4.4-.8-8.4-3.2-11.3-6.7-2.3-2.8-3.8-6.2-4.1-9.8-.1-.5-.1-1-.2-1.6v-.9c0-.2.1-.3.1-.5 0-1.6.3-3.3.9-4.8 2.7-7.3 7.9-11.7 15.9-13 2.9-.4 5.8-.2 8.6.7 9.4 2.8 15.1 12.2 13.2 21.8-.9 4.4-3.4 8.4-7.1 11.1-2.9 2.2-6.3 3.6-9.9 4l-1.8.2zm-.4-9.8h13c.5 0 .9 0 1.2-.5s0-.8-.2-1.2l-7.9-12.3-5.1-8-.1-.2c-.2-.5-.7-.7-1.2-.5-.2.1-.4.3-.5.5-3.1 4.8-6.1 9.6-9.2 14.4-1.4 2.1-2.7 4.2-4 6.3-.5.8-.1 1.4.8 1.4l13.2.1z"/>
            <path class="st3" d="M35.2 363.3H22c-.9 0-1.3-.7-.8-1.4 1.3-2.1 2.7-4.2 4-6.3 3.1-4.8 6.1-9.6 9.2-14.4.2-.5.7-.7 1.2-.5.2.1.4.3.5.5l.1.2 5.1 8 7.9 12.3c.2.4.5.7.2 1.2s-.7.5-1.2.5l-13-.1zm1.3-13.9c0-.4 0-.7-.1-1.1 0-.6-.5-1.1-1.1-1.1-.6-.1-1.2.4-1.4 1-.1.3-.1.6-.1.9 0 .8.1 1.6.2 2.5.1 1.2.2 2.3.3 3.5.1.7.4 1 .8 1s.8-.3.9-1 .1-1.1.2-1.6c.1-1.3.2-2.7.3-4.1zm-2.7 9.4c0 .7.7 1.3 1.4 1.3s1.2-.6 1.3-1.2c0-.7-.6-1.3-1.3-1.3-.7-.1-1.3.5-1.4 1.2z"/>
            <path class="st1" d="M36.5 349.4c-.1 1.3-.2 2.7-.4 4.1 0 .5-.1 1.1-.2 1.6s-.4 1-.9 1-.8-.3-.8-1c-.1-1.2-.2-2.3-.3-3.5-.1-.8-.1-1.6-.2-2.5 0-.3 0-.6.1-.9.1-.6.7-1.1 1.4-1 .6 0 1.1.4 1.1 1 .2.5.2.9.2 1.2zM33.8 358.8c0-.7.6-1.3 1.3-1.3.7 0 1.3.6 1.3 1.3-.1.7-.7 1.3-1.5 1.2-.5 0-1-.5-1.1-1.2z"/>
        </g>
    </g>
    <g>
        <g>
            <path class="st3" d="M584.7 524.9h-13.2c-.9 0-1.3-.7-.8-1.4 1.3-2.1 2.7-4.2 4-6.3 3.1-4.8 6.1-9.6 9.2-14.4.2-.5.7-.7 1.2-.5.2.1.4.3.5.5l.1.2 5.1 8 7.9 12.3c.2.4.5.7.2 1.2s-.7.5-1.2.5l-13-.1zM586 511c0-.4 0-.7-.1-1.1 0-.6-.5-1.1-1.1-1.1-.6-.1-1.2.4-1.4 1-.1.3-.1.6-.1.9 0 .8.1 1.7.1 2.5.1 1.2.2 2.3.3 3.5.1.7.4 1 .8 1s.8-.3.9-1 .1-1.1.2-1.6c.2-1.3.3-2.7.4-4.1zm-2.7 9.5c.1.7.7 1.3 1.5 1.2.7-.1 1.2-.6 1.2-1.2 0-.7-.6-1.3-1.3-1.3-.8-.1-1.4.5-1.4 1.3 0-.1 0-.1 0 0z"/>
            <g>
                <path class="st1" d="M442.7 538.3s-12.2-16.3-27.1-20.7c0 0-1.8-.2 0-.6 14.9-4.4 27.1-20.8 27.1-20.8v12.1l115.4.1v17.7l-115.4.1v12.1z"/>
                <g class="st2">
                    <path class="st3" d="M447.4 513.9h4.3v1.5h-2.6v1.1h.7c.8 0 1.6.1 2.1.6.3.3.5.8.5 1.4 0 .5-.2 1.1-.5 1.4-.5.5-1.3.6-2.1.6h-2.4v-6.6zm2.4 5.4c.2 0 .6 0 .8-.2.1-.1.2-.3.2-.5s-.1-.4-.2-.5c-.2-.2-.5-.2-.7-.2h-.6v1.4h.5zM456.9 517.6c.4 0 .9.1 1.2.4.3.3.4.7.4 1.1 0 .4-.1.8-.4 1.1-.3.3-.8.4-1.2.4h-2.7v-3.2H453v-1.3h2.7v1.5h1.2zm-.6 2c.2 0 .3-.1.4-.1.1-.1.1-.2.1-.3 0-.1 0-.2-.1-.3-.1-.1-.4-.1-.4-.1h-.6v.9h.6zM459.1 516.1h1.6v1.5h1.5v-1.5h1.6v4.5h-1.6v-1.7h-1.5v1.7h-1.6v-4.5zM469.5 516.1v3.3h.6v2.4h-1.4v-1.3h-3v1.3h-1.4v-2.4c.3 0 .5-.2.6-.3.4-.4.4-.9.4-1.3V516h4.2zm-1.6 1.2h-1.1v.8c0 .3 0 .5-.1.8-.1.3-.2.5-.4.6h1.6v-2.2zM475.5 518.7h-3.3c0 .2.1.6.3.7.1.1.3.2.7.2 0 0 .3 0 .5-.1l.3-.3h1.5c-.1.2-.2.6-.5.9-.3.3-.8.6-1.8.6-.6 0-1.3-.1-1.8-.7-.3-.3-.7-.8-.7-1.7 0-.8.3-1.3.7-1.7.4-.4.9-.6 1.8-.6.5 0 1.2.1 1.7.6.6.6.7 1.4.7 1.9v.2zm-1.4-1c0-.2-.1-.4-.3-.5-.2-.2-.5-.2-.7-.2-.3 0-.5.1-.7.2-.1.1-.2.3-.2.5h1.9zM478.1 522.9h-1.6v-6.8h1.6v.5c.3-.3.7-.6 1.4-.6s1.2.3 1.6.6c.4.4.7 1 .7 1.7s-.3 1.3-.7 1.8c-.5.5-1.1.6-1.5.6-.3 0-.9-.1-1.4-.6v2.8zm.2-5.3c-.2.2-.3.5-.3.7 0 .3.1.5.3.7.2.2.5.3.7.3.3 0 .5-.1.7-.3.2-.2.3-.4.3-.7 0-.2-.1-.5-.3-.7-.2-.2-.4-.3-.7-.3-.2 0-.5.2-.7.3zM484.2 516.1v2.3l1.8-2.3h1.4v4.5h-1.6v-2.4l-1.7 2.4h-1.4v-4.5h1.5zM488.5 516.1h1.6v3.2h1.2v-3.2h1.6v3.2h1.2v-3.2h1.6v4.5h-7.2v-4.5zM496.8 516.1h1.6v1.8l1.3-1.8h2l-1.8 2.1 2 2.4h-2.1l-1.5-2v2h-1.6v-4.5zM505.6 516.1h1.6v4.5h-1.6v-.5c-.4.5-.9.6-1.4.6-.5 0-1.1-.1-1.6-.7-.4-.5-.6-1-.6-1.6 0-.8.3-1.4.7-1.8.4-.4 1-.6 1.6-.6.7 0 1.1.4 1.3.6v-.5zm-1.7 1.5c-.2.2-.3.5-.3.7 0 .3.1.5.3.7.2.2.5.3.7.3.3 0 .5-.1.7-.3.1-.1.3-.4.3-.7 0-.2-.1-.5-.3-.7-.1-.1-.4-.3-.7-.3-.2 0-.4.1-.7.3zM510.7 516.1h4.6v4.5h-1.6v-3.2h-1.4v3.2h-1.6v-4.5zM520.9 520c-.6.6-1.3.7-2 .7-.6 0-1.4-.1-2-.7-.5-.5-.7-1-.7-1.6 0-.8.4-1.3.7-1.6.4-.4 1-.7 2-.7s1.6.4 2 .7c.3.3.7.8.7 1.6 0 .6-.2 1.1-.7 1.6zm-2.7-2.4c-.2.2-.3.5-.3.7 0 .3.1.5.3.7.2.2.5.3.7.3.3 0 .5-.1.7-.3.2-.2.3-.4.3-.7 0-.2-.1-.5-.3-.7-.2-.2-.5-.3-.7-.3-.3 0-.5.2-.7.3zM527.2 520.6h-1.6v-3.2h-1.1v1.3c0 .2 0 1-.5 1.5-.4.4-.9.4-1.3.4-.2 0-.4 0-.6-.1v-1.2c.2 0 .5 0 .6-.2.1-.2.2-.5.2-.7V516h4.3v4.6zM529.2 519c-.3 0-.6-.2-.8-.4-.2-.2-.4-.5-.4-1s.2-.8.4-1.1c.3-.4.9-.5 1.5-.5h2.4v4.5h-1.6v-1.4h-.1l-1 1.4H528l1.2-1.5zm1.6-1.8h-.5c-.2 0-.4 0-.5.1-.1.1-.1.2-.1.4s.1.3.1.4c.1.1.3.1.5.1h.5v-1zM533.5 516.1h1.6v1.5h1.5v-1.5h1.6v4.5h-1.6v-1.7h-1.5v1.7h-1.6v-4.5zM542.7 516.1h1.6v4.5h-1.6v-.5c-.4.5-.9.6-1.4.6-.5 0-1.1-.1-1.6-.7-.4-.5-.6-1-.6-1.6 0-.8.3-1.4.7-1.8.4-.4 1-.6 1.6-.6.7 0 1.2.4 1.3.6v-.5zm-1.7 1.5c-.2.2-.3.5-.3.7 0 .3.1.5.3.7.2.2.5.3.7.3.3 0 .5-.1.7-.3.1-.1.3-.4.3-.7 0-.2-.1-.5-.3-.7-.2-.1-.4-.3-.7-.3-.2 0-.4.1-.7.3z"/>
                </g>
                <path class="st1" d="M585.1 534.7h-.9c-.2 0-.3-.1-.5-.1-1-.1-2-.2-2.9-.3-4.4-.8-8.4-3.2-11.3-6.7-2.3-2.8-3.8-6.2-4.2-9.8-.1-.5-.1-1-.2-1.6v-.9c0-.2.1-.3.1-.5 0-1.6.3-3.2.9-4.8 2.7-7.3 7.9-11.7 15.9-13 2.9-.4 5.8-.2 8.6.7 9.4 2.8 15.1 12.2 13.2 21.8-.9 4.5-3.4 8.4-7.1 11.1-2.9 2.2-6.3 3.6-9.9 3.9l-1.7.2zm-.4-9.8h13c.5 0 .9 0 1.2-.5s0-.8-.2-1.2l-7.9-12.3-5.1-8-.1-.2c-.2-.5-.7-.7-1.2-.5-.2.1-.4.3-.5.5-3.1 4.8-6.1 9.6-9.2 14.4-1.3 2.1-2.7 4.2-4 6.3-.5.8-.1 1.4.8 1.4l13.2.1z"/>
                <path class="st1" d="M586 511c-.1 1.3-.2 2.7-.4 4.1 0 .5-.1 1.1-.2 1.6s-.4 1-.9 1-.8-.3-.8-1c-.1-1.2-.2-2.3-.3-3.5-.1-.8-.1-1.6-.1-2.5 0-.3 0-.6.1-.9.1-.6.7-1.1 1.4-1 .6 0 1.1.5 1.1 1.1.1.4.1.8.1 1.1zM583.3 520.5c0-.7.6-1.3 1.3-1.3.7 0 1.3.6 1.4 1.3-.1.7-.7 1.3-1.5 1.2-.6 0-1.1-.5-1.2-1.2z"/>
            </g>
        </g>
        <ellipse transform="rotate(-30 400.68 517.286)" cx="400.7" cy="517.3" rx="14.9" ry="6.6" fill="#a6d8f2" stroke="#060c0a" stroke-miterlimit="10"/>
    </g>
    <g>
        <g>
            <circle class="st1" cx="111.9" cy="253.3" r="2.3"/>
            <path class="st0" d="M316.8 135.2c-6.2 10.6-12 21.3-16.5 27.5-10.8 15.1-15.7 19.5-18.1 21.5-5.5 4.8-11.8 8.6-18.5 11.2-7.3 2.8-8.4 1.4-16 4.4-7.1 2.7-11.9 6-18.8 10.8-3.7 2.6-3.5 2.7-15.6 12.3-8.9 7-13.6 10.6-20.2 14.6-4 2.6-8.5 4.4-13.1 5.4-1.5.3-2.8.5-9 .6-9.7.3-19.3.2-23.6.2-8.9 0-9.3-.1-10.8.2-6.1 1.1-6.4 3-15.4 5.8-5.3 1.6-7.4 1.7-9.2 4"/>
            <circle class="st1" cx="211.7" cy="222.7" r="7.9"/>
            <g class="st2">
                <path class="st3" d="M210.6 224.1c0 .3.1.6.3.7.2.2.4.3.8.3s.6-.2.8-.3c.2-.2.2-.4.2-.6 0-.3-.2-.5-.3-.7-.2-.2-.5-.2-.7-.2h-.3V222c.4.1.6-.1.8-.2.2-.2.2-.4.2-.5 0-.2-.1-.4-.2-.5-.1-.1-.3-.2-.5-.2s-.4.1-.5.2c-.2.2-.3.4-.3.7H209c0-.8.4-1.4.7-1.7.5-.6 1.3-.7 2-.7.6 0 1.3.1 1.9.7.4.4.6.9.6 1.4 0 .3-.1.6-.2.9-.1.2-.3.4-.6.6.5.2.7.5.9.7.2.3.3.7.3 1.1 0 .8-.3 1.3-.7 1.6-.4.4-1.1.8-2.2.8-.7 0-1.5-.2-2.1-.8-.4-.3-.8-1-.9-1.9h1.9z"/>
            </g>
            <circle class="st1" cx="316.8" cy="135.5" r="2.3"/>
        </g>
        <g>
            <path class="st1" d="M253.2 238.2s-8.8-11.7-19.4-14.9c0 0-1.3-.2 0-.4 10.7-3.2 19.4-14.9 19.4-14.9v8.7l43.4.1v12.7l-43.4.1v8.6z"/>
            <g class="st2">
                <path class="st3" d="M258.9 225.7v-5.2h-2.4v5.2h-1.7V219h5.9v6.7h-1.8zM266.6 225.7H265v-3.2h-1.1v1.3c0 .2 0 1-.5 1.5-.4.4-.9.4-1.3.4-.2 0-.4 0-.6-.1v-1.2c.2 0 .5 0 .6-.2.1-.2.2-.5.2-.7v-2.4h4.3v4.6zM271.2 221.3h1.6v4.5h-1.6v-.5c-.4.5-.9.6-1.4.6-.5 0-1.1-.1-1.6-.7-.4-.5-.6-1-.6-1.6 0-.8.3-1.4.7-1.8.4-.4 1-.6 1.6-.6.7 0 1.1.4 1.3.6v-.5zm-1.7 1.5c-.2.2-.3.5-.3.7 0 .3.1.5.3.7.2.2.4.3.7.3.3 0 .5-.1.7-.3.1-.1.3-.4.3-.7 0-.2-.1-.5-.3-.7-.1-.1-.4-.3-.7-.3-.2 0-.5.1-.7.3zM274.6 222.6h-1.2v-1.3h3.9v1.3h-1.2v3.2h-1.6v-3.2zM282.5 225.2c-.6.6-1.3.7-2 .7-.6 0-1.4-.1-2-.7-.5-.5-.7-1-.7-1.6 0-.8.4-1.3.7-1.6.4-.4 1-.7 2-.7s1.6.4 2 .7c.3.3.7.8.7 1.6 0 .5-.2 1.1-.7 1.6zm-2.7-2.4c-.2.2-.3.5-.3.7 0 .3.1.5.3.7.2.2.4.3.7.3.3 0 .5-.1.7-.3.2-.2.3-.4.3-.7 0-.2-.1-.5-.3-.7-.2-.2-.5-.3-.7-.3-.3 0-.6.1-.7.3zM288.2 220.6h-.9v-1.5h2.7v6.7h-1.7v-5.2z"/>
            </g>
            <path class="st1" d="M321.2 242.4h-.9l-.5-.1c-1-.1-2-.1-2.9-.4-4.4-.8-8.4-3.2-11.3-6.7-2.3-2.8-3.8-6.2-4.1-9.8 0-.5-.1-1.1-.2-1.6v-.8c0-.2.1-.3.1-.5 0-1.6.3-3.2.9-4.8 2.7-7.3 8-11.7 15.9-13 2.9-.4 5.8-.2 8.6.7 9.4 2.8 15.1 12.2 13.2 21.8-.9 4.5-3.4 8.4-7.1 11.1-2.9 2.2-6.3 3.6-9.9 3.9l-1.8.2zm-.4-9.9h13c.5 0 .9 0 1.2-.5s0-.8-.2-1.2l-7.9-12.4-5.1-8-.1-.2c-.2-.5-.7-.7-1.2-.5-.2.1-.4.3-.5.5-3.1 4.8-6.1 9.6-9.2 14.4l-4 6.3c-.5.8-.1 1.4.8 1.4l13.2.2z"/>
            <path class="st3" d="M320.8 232.5h-13.2c-.9 0-1.3-.7-.8-1.4l4-6.3c3.1-4.8 6.1-9.6 9.2-14.4.2-.5.7-.7 1.2-.5.2.1.4.3.5.5l.1.2 5.1 8 7.9 12.4c.2.4.5.7.2 1.2s-.7.5-1.2.5l-13-.2zm1.3-13.8c0-.4 0-.7-.1-1.1 0-.6-.5-1.1-1.1-1.1-.6-.1-1.2.4-1.4 1-.1.3-.1.6-.1.9 0 .8.1 1.6.1 2.5.1 1.2.2 2.3.3 3.5.1.7.4 1 .8 1s.8-.3.9-1 .1-1.1.2-1.6c.2-1.4.3-2.7.4-4.1zm-2.7 9.4c0 .7.7 1.3 1.4 1.3s1.2-.6 1.3-1.2c0-.7-.7-1.3-1.4-1.3-.7.1-1.2.6-1.3 1.2z"/>
            <path class="st1" d="M322.1 218.7c-.1 1.3-.2 2.7-.4 4.1 0 .5-.1 1.1-.2 1.6s-.4 1-.9 1-.8-.3-.8-1c-.1-1.1-.2-2.3-.3-3.5-.1-.8-.1-1.6-.1-2.5 0-.3 0-.6.1-.9.1-.6.7-1.1 1.4-1 .6 0 1.1.4 1.1 1 .1.5.1.8.1 1.2zM319.4 228.1c.1-.7.7-1.3 1.5-1.2.7.1 1.2.6 1.2 1.3-.1.7-.7 1.3-1.5 1.2-.6-.1-1.1-.6-1.2-1.3z"/>
        </g>
    </g>
    <g>
        <g>
            <path class="st0" d="M265 634.4l14.1 61.8"/>
            <circle class="st1" cx="264.9" cy="633.9" r="2.3"/>
            <circle class="st1" cx="279.1" cy="696.2" r="2.3"/>
        </g>
        <g>
            <path class="st1" d="M301.4 663.8s-10.5-14.2-23.4-18c0 0-1.6-.2 0-.5 12.9-3.8 23.4-18 23.4-18v10.5l41.5.1v15.3l-41.5.1v10.5z"/>
            <g class="st2">
                <path class="st3" d="M307.4 645.9c-.5.1-.9.1-1.4.1-.5 0-1.3 0-1.8-.5-.5-.4-.5-1.1-.5-1.6v-2.1h1.7v1.8c0 .2 0 .5.2.7.2.2.6.2.8.2.3 0 .7 0 1-.1v-2.6h1.7v6.7h-1.7v-2.6zM313.8 644h1.6v4.5h-1.6v-.5c-.4.5-.9.6-1.4.6-.5 0-1.1-.1-1.6-.7-.4-.5-.6-1-.6-1.6 0-.8.3-1.4.7-1.8.4-.4 1-.6 1.6-.6.7 0 1.1.4 1.3.6v-.5zm-1.7 1.5c-.2.2-.3.5-.3.7 0 .3.1.5.3.7.2.2.4.3.7.3.3 0 .5-.1.7-.3.1-.1.3-.4.3-.7 0-.2-.1-.5-.3-.7-.1-.1-.4-.3-.7-.3-.2 0-.4.1-.7.3zM321.2 648.5h-1.6v-3.2h-1.1v1.3c0 .2 0 1-.5 1.5-.4.4-.9.4-1.3.4-.2 0-.4 0-.6-.1v-1.2c.2 0 .5 0 .6-.2.1-.2.2-.5.2-.7V644h4.3v4.5zM323.9 644v2.3l1.8-2.3h1.4v4.5h-1.6v-2.4l-1.7 2.4h-1.4V644h1.5zM328.1 644h1.6v1.5h1.5V644h1.6v4.5h-1.6v-1.7h-1.5v1.7h-1.6V644z"/>
            </g>
            <path class="st1" d="M365.3 667.3h-.9l-.5-.1c-1-.1-2-.2-2.9-.3-4.4-.8-8.4-3.2-11.3-6.7-2.3-2.8-3.8-6.2-4.1-9.8 0-.5-.1-1-.2-1.6v-.9c0-.2.1-.3.1-.5 0-1.6.3-3.2.9-4.8 2.7-7.3 8-11.7 15.9-13 2.9-.4 5.8-.2 8.5.7 9.4 2.8 15.1 12.2 13.2 21.8-.9 4.5-3.4 8.4-7.1 11.1-2.9 2.2-6.3 3.6-9.9 3.9l-1.7.2zm-.4-9.8h13c.5 0 .9 0 1.2-.5s0-.8-.2-1.2c-2.6-4.1-5.2-8.2-7.9-12.3l-5.1-8-.1-.2c-.2-.5-.7-.7-1.2-.5-.2.1-.4.3-.5.5-3 4.8-6.1 9.6-9.2 14.4l-4 6.3c-.5.8-.1 1.4.8 1.5h13.2z"/>
            <path class="st3" d="M364.9 657.5h-13.2c-.9 0-1.3-.7-.8-1.5l4-6.3c3.1-4.8 6.1-9.6 9.2-14.4.2-.5.7-.7 1.2-.5.2.1.4.3.5.5l.1.2 5.1 8c2.6 4.1 5.2 8.2 7.9 12.3.2.4.5.7.2 1.2s-.7.5-1.2.5h-13zm1.3-13.8c0-.4 0-.7-.1-1.1 0-.6-.5-1.1-1.1-1.1-.6-.1-1.2.4-1.4 1-.1.3-.1.6-.1.9 0 .8.1 1.7.1 2.5.1 1.2.2 2.3.3 3.5.1.7.4 1 .8 1s.8-.3.9-1 .1-1.1.2-1.6c.2-1.4.3-2.8.4-4.1zm-2.7 9.4c0 .7.6 1.4 1.3 1.4s1.4-.6 1.4-1.3c0-.7-.6-1.3-1.3-1.3-.7-.1-1.3.4-1.4 1.2z"/>
            <path class="st1" d="M366.2 643.7c-.1 1.3-.2 2.7-.4 4.1 0 .5-.1 1.1-.2 1.6s-.4 1-.9 1-.8-.3-.8-1c-.1-1.2-.2-2.3-.3-3.5-.1-.8-.1-1.7-.1-2.5 0-.3 0-.6.1-.9.1-.6.7-1.1 1.4-1 .6 0 1.1.4 1.1 1 .1.4.1.8.1 1.2zM363.5 653.1c0-.7.6-1.3 1.3-1.3.7 0 1.3.6 1.3 1.3 0 .7-.6 1.3-1.4 1.3s-1.2-.6-1.2-1.3z"/>
        </g>
    </g>
    <g>
        <g>
            <g class="st2">
                <path class="st3" d="M141.3 506.6c-.7.2-1.1.3-1.5.3-1.2 0-2-.5-2.6-1-.6-.6-1-1.6-1-2.4 0-.9.4-1.8 1-2.5.6-.6 1.5-1 2.5-1 .3 0 .8 0 1.6.3v2.1c-.6-.7-1.2-.7-1.5-.7-.5 0-.9.2-1.2.4-.4.4-.6.9-.6 1.4 0 .5.2 1 .5 1.3.3.3.8.5 1.2.5.3 0 .9 0 1.5-.7v2zM143 503.6h-1.2v-1.3h3.9v1.3h-1.2v3.2H143v-3.2zM148 509h-1.6v-6.8h1.6v.5c.3-.3.7-.6 1.4-.6s1.2.3 1.6.6c.4.4.7 1 .7 1.7s-.3 1.3-.7 1.8c-.5.5-1.1.6-1.5.6-.3 0-.9-.1-1.4-.6v2.8zm.2-5.2c-.2.2-.3.5-.3.7 0 .3.1.5.3.7.2.2.4.3.7.3.3 0 .5-.1.7-.3.2-.2.3-.4.3-.7 0-.2-.1-.5-.3-.7-.2-.2-.4-.3-.7-.3-.2 0-.5.1-.7.3zM156 502.3h1.6v4.5H156v-.5c-.4.5-.9.6-1.4.6-.5 0-1.1-.1-1.6-.7-.4-.5-.6-1-.6-1.6 0-.8.3-1.4.7-1.8.4-.4 1-.6 1.6-.6.7 0 1.1.4 1.3.6v-.5zm-1.7 1.5c-.2.2-.3.5-.3.7 0 .3.1.5.3.7.2.2.4.3.7.3.3 0 .5-.1.7-.3.1-.1.3-.4.3-.7 0-.2-.1-.5-.3-.7-.1-.1-.4-.3-.7-.3-.2 0-.4 0-.7.3zM161.5 504.8l-1.3 1.9h-2l1.8-2.3-1.5-2.1h1.8l1.2 1.9v-1.9h1.6v1.9l1.2-1.9h1.8l-1.5 2.1 1.8 2.3h-2l-1.3-1.9v1.9h-1.6v-1.9zM168.5 502.3v2.3l1.8-2.3h1.4v4.5H170v-2.4l-1.7 2.4h-1.4v-4.5h1.6zM173.5 503.6h-1.2v-1.3h3.9v1.3H175v3.2h-1.6v-3.2zM181.6 504.8h-3.3c0 .2.1.6.3.7.1.1.3.2.7.2 0 0 .3 0 .5-.1l.3-.3h1.5c-.1.2-.2.6-.5.9-.3.3-.8.6-1.8.6-.6 0-1.3-.1-1.8-.7-.3-.3-.7-.8-.7-1.7 0-.8.3-1.3.7-1.7.4-.4.9-.6 1.8-.6.5 0 1.2.1 1.7.6.6.6.7 1.4.7 1.9v.2zm-1.5-.9c0-.2-.1-.4-.3-.5-.2-.2-.5-.2-.7-.2-.3 0-.5.1-.6.2-.1.1-.2.3-.2.5h1.8z"/>
            </g>
            <path class="st1" d="M160.1 525s12.1-16.5 27-21c0 0 1.8-.2 0-.5-14.9-4.3-27.3-20.6-27.3-20.6l.1 12.1-43.6.3.1 9.1v-.6l.1 9.2 43.6-.1V525z"/>
            <g class="st2">
                <path class="st3" d="M129.5 506.6c-.7.2-1.1.3-1.5.3-1.2 0-2-.5-2.6-1-.6-.6-1-1.6-1-2.4 0-.9.4-1.8 1-2.5.6-.6 1.5-1 2.5-1 .3 0 .8 0 1.6.3v2.1c-.6-.7-1.2-.7-1.5-.7-.5 0-.9.2-1.2.4-.4.4-.6.9-.6 1.4 0 .5.2 1 .5 1.3.3.3.8.5 1.2.5.3 0 .9 0 1.5-.7v2zM131.1 503.6H130v-1.3h3.9v1.3h-1.2v3.2h-1.6v-3.2zM136.2 509h-1.6v-6.8h1.6v.5c.3-.3.7-.6 1.4-.6s1.2.3 1.6.6c.4.4.7 1 .7 1.7s-.3 1.3-.7 1.8c-.5.5-1.1.6-1.5.6-.3 0-.9-.1-1.4-.6v2.8zm.2-5.2c-.2.2-.3.5-.3.7 0 .3.1.5.3.7.2.2.4.3.7.3.3 0 .5-.1.7-.3.2-.2.3-.4.3-.7 0-.2-.1-.5-.3-.7-.2-.2-.4-.3-.7-.3-.2 0-.5.1-.7.3zM144.2 502.3h1.6v4.5h-1.6v-.5c-.4.5-.9.6-1.4.6-.5 0-1.1-.1-1.6-.7-.4-.5-.6-1-.6-1.6 0-.8.3-1.4.7-1.8.4-.4 1-.6 1.6-.6.7 0 1.1.4 1.3.6v-.5zm-1.7 1.5c-.2.2-.3.5-.3.7 0 .3.1.5.3.7.2.2.4.3.7.3.3 0 .5-.1.7-.3.1-.1.3-.4.3-.7 0-.2-.1-.5-.3-.7-.1-.1-.4-.3-.7-.3-.2 0-.5 0-.7.3zM149.6 504.8l-1.3 1.9h-2l1.8-2.3-1.5-2.1h1.8l1.2 1.9v-1.9h1.6v1.9l1.2-1.9h1.8l-1.5 2.1 1.8 2.3h-2l-1.3-1.9v1.9h-1.6v-1.9zM156.7 502.3v2.3l1.8-2.3h1.4v4.5h-1.6v-2.4l-1.7 2.4h-1.4v-4.5h1.5zM161.6 503.6h-1.2v-1.3h3.9v1.3h-1.2v3.2h-1.6v-3.2zM169.8 504.8h-3.3c0 .2.1.6.3.7.1.1.3.2.7.2 0 0 .3 0 .5-.1l.3-.3h1.5c-.1.2-.2.6-.5.9-.3.3-.8.6-1.8.6-.6 0-1.3-.1-1.8-.7-.3-.3-.7-.8-.7-1.7 0-.8.3-1.3.7-1.7.4-.4.9-.6 1.8-.6.5 0 1.2.1 1.7.6.6.6.7 1.4.7 1.9v.2zm-1.5-.9c0-.2-.1-.4-.3-.5-.2-.2-.5-.2-.7-.2-.3 0-.5.1-.6.2-.1.1-.2.3-.2.5h1.8z"/>
            </g>
            <path class="st1" d="M92.3 522.9h-.9l-.5-.1c-1-.1-2-.2-2.9-.3-4.4-.8-8.4-3.2-11.3-6.7-2.3-2.8-3.8-6.2-4.1-9.8-.1-.5-.1-1-.2-1.6v-.9c0-.2.1-.3.1-.5 0-1.6.3-3.2.9-4.8 2.7-7.3 8-11.7 15.9-13 2.9-.4 5.8-.2 8.6.7 9.4 2.7 15.1 12.2 13.2 21.8-.9 4.5-3.4 8.4-7.1 11.1-2.9 2.2-6.3 3.6-9.9 3.9l-1.8.2zm-.4-9.9h13c.5 0 .9 0 1.2-.5s0-.8-.2-1.2L98 499l-5.1-8-.1-.2c-.2-.5-.7-.7-1.2-.5-.2.1-.4.3-.5.5L82 505.2c-1.3 2.1-2.7 4.2-4 6.3-.5.8-.1 1.4.8 1.5h13.1z"/>
            <path class="st3" d="M91.9 513H78.7c-.9 0-1.3-.7-.8-1.5 1.3-2.1 2.7-4.2 4-6.3l9.2-14.4c.2-.5.7-.7 1.2-.5.2.1.4.3.5.5l.1.2 5.1 8 7.9 12.3c.2.4.5.7.2 1.2s-.7.5-1.2.5h-13zm1.4-13.8c0-.4 0-.7-.1-1.1 0-.6-.5-1.1-1.1-1.1-.6-.1-1.2.4-1.4 1-.1.3-.1.6-.1.9 0 .8.1 1.7.1 2.5.1 1.2.2 2.3.3 3.5.1.7.4 1 .8 1s.8-.3.9-1 .1-1.1.2-1.6c.2-1.4.3-2.8.4-4.1zm-2.7 9.4c0 .7.6 1.4 1.3 1.4.7 0 1.4-.6 1.4-1.3s-.6-1.4-1.3-1.4c-.8 0-1.4.5-1.4 1.3z"/>
            <path class="st1" d="M93.3 499.2c-.1 1.3-.2 2.7-.4 4.1 0 .5-.1 1.1-.2 1.6s-.4 1-.9 1-.8-.3-.8-1c-.1-1.1-.2-2.3-.3-3.5-.1-.8-.1-1.6-.1-2.5 0-.3 0-.6.1-.9.1-.6.7-1.1 1.4-1 .6 0 1.1.4 1.1 1 0 .5.1.8.1 1.2zM90.6 508.6c0-.7.6-1.3 1.4-1.3.7 0 1.3.6 1.3 1.4 0 .7-.6 1.3-1.4 1.3-.7-.1-1.3-.7-1.3-1.4z"/>
        </g>
        <g>
            <path d="M210.2 521.3c0-25.6-2-36.1-4.2-40.6-1-2.1-2.3-4-3.9-5.7-3-3.2-6.9-8.2-10.6-13.2" fill="none" stroke="#f66" stroke-width="3" stroke-miterlimit="10"/>
            <g>
                <g>
                    <circle class="st6" cx="209.2" cy="488.5" r="6.6"/>
                </g>
            </g>
            <g>
                <g>
                    <path class="st3" d="M208 484.9l-.8 6.6h-1.7l.6-5.1h-.9l.2-1.5h2.6zM213.7 490l-.2 1.5h-5c.9-.8 1.2-1.1 1.8-1.8.4-.4.7-.8 1.1-1.2.6-.8.9-1.2.9-1.6 0-.4-.3-.7-.8-.7-.6 0-.8.3-.9 1.1h-1.7c.1-.8.2-1.3.7-1.8.5-.5 1.2-.8 2-.8 1.5 0 2.4.8 2.4 2.1 0 .6-.2 1.1-.5 1.6-.1.2-.3.4-.5.6-.4.4-.6.5-1.2 1h1.9z"/>
                </g>
            </g>
            <circle class="st6" cx="210.4" cy="520.8" r="2.3"/>
        </g>
    </g>
</svg>
